<mxfile host="app.diagrams.net" agent="Mozilla/5.0 (Windows NT 10.0; Win64; x64) AppleWebKit/537.36 (KHTML, like Gecko) Chrome/131.0.0.0 Safari/537.36" version="26.0.8">
  <diagram name="Page-1" id="e7e014a7-5840-1c2e-5031-d8a46d1fe8dd">
    <mxGraphModel grid="1" page="1" gridSize="10" guides="1" tooltips="1" connect="1" arrows="1" fold="1" pageScale="1" pageWidth="1169" pageHeight="826" background="none" math="0" shadow="0">
      <root>
        <mxCell id="0" />
        <mxCell id="1" parent="0" />
        <mxCell id="2" value="" style="swimlane;whiteSpace=wrap;startSize=23;" vertex="1" parent="1">
          <mxGeometry x="170" y="180" width="635.5" height="690" as="geometry" />
        </mxCell>
        <mxCell id="5" value="" style="ellipse;shape=startState;fillColor=#000000;strokeColor=#ff0000;" vertex="1" parent="2">
          <mxGeometry x="270" y="40" width="30" height="30" as="geometry" />
        </mxCell>
        <mxCell id="7" value="idle" style="" vertex="1" parent="2">
          <mxGeometry x="230" y="102" width="110" height="50" as="geometry" />
        </mxCell>
        <mxCell id="8" value="Login" style="" vertex="1" parent="2">
          <mxGeometry x="230" y="182" width="110" height="50" as="geometry" />
        </mxCell>
        <mxCell id="ZiBPszBlEdy-53vw9gpm-43" value="Browse Services" style="rounded=0;whiteSpace=wrap;html=1;" vertex="1" parent="2">
          <mxGeometry x="460" y="240" width="120" height="40" as="geometry" />
        </mxCell>
        <mxCell id="ZiBPszBlEdy-53vw9gpm-45" value="Select Services" style="rounded=0;whiteSpace=wrap;html=1;" vertex="1" parent="2">
          <mxGeometry x="460" y="310" width="120" height="40" as="geometry" />
        </mxCell>
        <mxCell id="ZiBPszBlEdy-53vw9gpm-46" value="Book Appointment" style="rounded=0;whiteSpace=wrap;html=1;" vertex="1" parent="2">
          <mxGeometry x="460" y="380" width="120" height="40" as="geometry" />
        </mxCell>
        <mxCell id="ZiBPszBlEdy-53vw9gpm-47" value="Select Date and time" style="rounded=0;whiteSpace=wrap;html=1;" vertex="1" parent="2">
          <mxGeometry x="460" y="450" width="120" height="40" as="geometry" />
        </mxCell>
        <mxCell id="ZiBPszBlEdy-53vw9gpm-48" value="Review" style="rounded=0;whiteSpace=wrap;html=1;" vertex="1" parent="2">
          <mxGeometry x="460" y="524" width="120" height="40" as="geometry" />
        </mxCell>
        <mxCell id="ZiBPszBlEdy-53vw9gpm-49" value="" style="endArrow=classic;html=1;rounded=0;exitX=0.5;exitY=1;exitDx=0;exitDy=0;entryX=0.5;entryY=0;entryDx=0;entryDy=0;strokeColor=light-dark(#0d0d0d, #ededed);" edge="1" parent="2" source="ZiBPszBlEdy-53vw9gpm-43" target="ZiBPszBlEdy-53vw9gpm-45">
          <mxGeometry width="50" height="50" relative="1" as="geometry">
            <mxPoint x="470" y="343" as="sourcePoint" />
            <mxPoint x="520" y="293" as="targetPoint" />
            <Array as="points">
              <mxPoint x="520" y="290" />
            </Array>
          </mxGeometry>
        </mxCell>
        <mxCell id="ZiBPszBlEdy-53vw9gpm-50" value="" style="endArrow=classic;html=1;rounded=0;exitX=0.5;exitY=1;exitDx=0;exitDy=0;entryX=0.5;entryY=0;entryDx=0;entryDy=0;strokeColor=light-dark(#0d0d0d, #ededed);" edge="1" parent="2">
          <mxGeometry width="50" height="50" relative="1" as="geometry">
            <mxPoint x="519.5" y="350" as="sourcePoint" />
            <mxPoint x="519.5" y="380" as="targetPoint" />
            <Array as="points">
              <mxPoint x="519.5" y="360" />
            </Array>
          </mxGeometry>
        </mxCell>
        <mxCell id="ZiBPszBlEdy-53vw9gpm-54" value="" style="endArrow=classic;html=1;rounded=0;exitX=0.5;exitY=1;exitDx=0;exitDy=0;entryX=0.5;entryY=0;entryDx=0;entryDy=0;" edge="1" parent="2" source="ZiBPszBlEdy-53vw9gpm-46" target="ZiBPszBlEdy-53vw9gpm-47">
          <mxGeometry width="50" height="50" relative="1" as="geometry">
            <mxPoint x="360" y="410" as="sourcePoint" />
            <mxPoint x="340" y="450" as="targetPoint" />
            <Array as="points" />
          </mxGeometry>
        </mxCell>
        <mxCell id="ZiBPszBlEdy-53vw9gpm-56" value="" style="endArrow=classic;html=1;rounded=0;exitX=0.5;exitY=1;exitDx=0;exitDy=0;entryX=0.5;entryY=0;entryDx=0;entryDy=0;strokeColor=light-dark(#ec0909, #ededed);" edge="1" parent="2" source="5" target="7">
          <mxGeometry width="50" height="50" relative="1" as="geometry">
            <mxPoint x="290" y="264" as="sourcePoint" />
            <mxPoint x="340" y="214" as="targetPoint" />
          </mxGeometry>
        </mxCell>
        <mxCell id="ZiBPszBlEdy-53vw9gpm-57" value="" style="endArrow=classic;html=1;rounded=0;exitX=0.5;exitY=1;exitDx=0;exitDy=0;entryX=0.5;entryY=0;entryDx=0;entryDy=0;" edge="1" parent="2" source="7" target="8">
          <mxGeometry width="50" height="50" relative="1" as="geometry">
            <mxPoint x="290" y="264" as="sourcePoint" />
            <mxPoint x="340" y="214" as="targetPoint" />
          </mxGeometry>
        </mxCell>
        <mxCell id="ZiBPszBlEdy-53vw9gpm-58" value="" style="endArrow=classic;html=1;rounded=0;exitX=0;exitY=0.5;exitDx=0;exitDy=0;" edge="1" parent="2" source="8">
          <mxGeometry width="50" height="50" relative="1" as="geometry">
            <mxPoint x="100" y="232" as="sourcePoint" />
            <mxPoint x="60" y="244" as="targetPoint" />
            <Array as="points">
              <mxPoint x="60" y="204" />
              <mxPoint x="60" y="244" />
            </Array>
          </mxGeometry>
        </mxCell>
        <mxCell id="ZiBPszBlEdy-53vw9gpm-59" value="" style="endArrow=classic;html=1;rounded=0;exitX=1;exitY=0.5;exitDx=0;exitDy=0;" edge="1" parent="2" source="8">
          <mxGeometry width="50" height="50" relative="1" as="geometry">
            <mxPoint x="690" y="203" as="sourcePoint" />
            <mxPoint x="520" y="240" as="targetPoint" />
            <Array as="points">
              <mxPoint x="520" y="207" />
              <mxPoint x="520" y="240" />
            </Array>
          </mxGeometry>
        </mxCell>
        <mxCell id="ZiBPszBlEdy-53vw9gpm-60" value="Search Products" style="rounded=0;whiteSpace=wrap;html=1;" vertex="1" parent="2">
          <mxGeometry x="10" y="250" width="120" height="40" as="geometry" />
        </mxCell>
        <mxCell id="ZiBPszBlEdy-53vw9gpm-61" value="Add to Cart" style="rounded=0;whiteSpace=wrap;html=1;" vertex="1" parent="2">
          <mxGeometry x="80" y="324" width="120" height="40" as="geometry" />
        </mxCell>
        <mxCell id="ZiBPszBlEdy-53vw9gpm-65" value="" style="endArrow=classic;html=1;rounded=0;entryX=0.25;entryY=0;entryDx=0;entryDy=0;" edge="1" parent="2" target="ZiBPszBlEdy-53vw9gpm-61">
          <mxGeometry width="50" height="50" relative="1" as="geometry">
            <mxPoint x="110" y="294" as="sourcePoint" />
            <mxPoint x="110" y="274" as="targetPoint" />
          </mxGeometry>
        </mxCell>
        <mxCell id="ZiBPszBlEdy-53vw9gpm-66" value="Place Order" style="rounded=0;whiteSpace=wrap;html=1;" vertex="1" parent="2">
          <mxGeometry x="90" y="394" width="120" height="40" as="geometry" />
        </mxCell>
        <mxCell id="ZiBPszBlEdy-53vw9gpm-69" value="" style="endArrow=classic;html=1;rounded=0;entryX=0.167;entryY=0;entryDx=0;entryDy=0;entryPerimeter=0;" edge="1" parent="2" target="ZiBPszBlEdy-53vw9gpm-66">
          <mxGeometry width="50" height="50" relative="1" as="geometry">
            <mxPoint x="110" y="364" as="sourcePoint" />
            <mxPoint x="160" y="314" as="targetPoint" />
          </mxGeometry>
        </mxCell>
        <mxCell id="ZiBPszBlEdy-53vw9gpm-70" value="Payment" style="rounded=0;whiteSpace=wrap;html=1;" vertex="1" parent="2">
          <mxGeometry x="160" y="504" width="120" height="40" as="geometry" />
        </mxCell>
        <mxCell id="ZiBPszBlEdy-53vw9gpm-71" value="" style="endArrow=classic;html=1;rounded=0;entryX=0.311;entryY=-0.017;entryDx=0;entryDy=0;entryPerimeter=0;" edge="1" parent="2" target="ZiBPszBlEdy-53vw9gpm-70">
          <mxGeometry width="50" height="50" relative="1" as="geometry">
            <mxPoint x="197" y="437" as="sourcePoint" />
            <mxPoint x="240" y="445" as="targetPoint" />
          </mxGeometry>
        </mxCell>
        <mxCell id="ZiBPszBlEdy-53vw9gpm-72" value="Confirmation" style="rounded=0;whiteSpace=wrap;html=1;" vertex="1" parent="2">
          <mxGeometry x="200" y="584" width="120" height="40" as="geometry" />
        </mxCell>
        <mxCell id="ZiBPszBlEdy-53vw9gpm-73" value="" style="endArrow=classic;html=1;rounded=0;exitX=0;exitY=0.5;exitDx=0;exitDy=0;" edge="1" parent="2" source="ZiBPszBlEdy-53vw9gpm-72">
          <mxGeometry width="50" height="50" relative="1" as="geometry">
            <mxPoint x="70" y="604" as="sourcePoint" />
            <mxPoint x="40" y="504" as="targetPoint" />
            <Array as="points">
              <mxPoint x="40" y="604" />
            </Array>
          </mxGeometry>
        </mxCell>
        <mxCell id="ZiBPszBlEdy-53vw9gpm-74" value="" style="endArrow=classic;html=1;rounded=0;" edge="1" parent="2">
          <mxGeometry width="50" height="50" relative="1" as="geometry">
            <mxPoint x="40" y="294" as="sourcePoint" />
            <mxPoint x="40" y="474" as="targetPoint" />
          </mxGeometry>
        </mxCell>
        <mxCell id="ZiBPszBlEdy-53vw9gpm-75" value="" style="ellipse;shape=startState;fillColor=#000000;strokeColor=#ff0000;" vertex="1" parent="2">
          <mxGeometry x="30" y="474" width="30" height="30" as="geometry" />
        </mxCell>
        <mxCell id="ZiBPszBlEdy-53vw9gpm-76" value="" style="endArrow=classic;html=1;rounded=0;entryX=0.339;entryY=0.017;entryDx=0;entryDy=0;entryPerimeter=0;" edge="1" parent="2" target="ZiBPszBlEdy-53vw9gpm-72">
          <mxGeometry width="50" height="50" relative="1" as="geometry">
            <mxPoint x="240" y="544" as="sourcePoint" />
            <mxPoint x="290" y="494" as="targetPoint" />
          </mxGeometry>
        </mxCell>
        <mxCell id="ZiBPszBlEdy-53vw9gpm-77" value="" style="endArrow=classic;html=1;rounded=0;exitX=0.5;exitY=1;exitDx=0;exitDy=0;entryX=0.5;entryY=0;entryDx=0;entryDy=0;" edge="1" parent="2" source="ZiBPszBlEdy-53vw9gpm-47" target="ZiBPszBlEdy-53vw9gpm-48">
          <mxGeometry width="50" height="50" relative="1" as="geometry">
            <mxPoint x="520" y="524" as="sourcePoint" />
            <mxPoint x="570" y="474" as="targetPoint" />
          </mxGeometry>
        </mxCell>
      </root>
    </mxGraphModel>
  </diagram>
</mxfile>
